<svg xmlns="http://www.w3.org/2000/svg" viewBox="0 0 598.92 377.1"><defs><style>.cls-1,.cls-6{fill:#1778be;}.cls-1,.cls-2,.cls-3,.cls-4,.cls-5{fill-rule:evenodd;}.cls-2{fill:#d9343a;}.cls-3{fill:#ef8831;}.cls-4{fill:#f6ec1f;}.cls-5{fill:#1e77b9;}.cls-7{fill:#231f20;}</style></defs><g id="Layer_2" data-name="Layer 2"><g id="Layer_1-2" data-name="Layer 1"><path class="cls-1" d="M271.11,207.78q0-9.51,0-19c0-2.7.47-17.5-.3-18.78a14.34,14.34,0,0,0-1-1.2L255.44,152c-.73-.92-1.46-1.62-2.24-2.55-7.19-8.62-6.29-5.54-6.29-12.67V98.49c0-6-.38-13.39,0-19.24.5-.2-.44.19.42-.11l.67-.28c-7.27-1.47-13.72-9.17-12.33-18.43A16.31,16.31,0,0,1,253,46.57c16.54,1,20.62,23.24,6.92,30.68-3.18,1.72-4.32,1.43-5.74,2.06v57.87c0,2.46-.16,2,1.2,3.5l22.22,26c1.16,1.24.79,1,.79,4.16s-.17,36.58.06,38.91a10.63,10.63,0,0,1,2.29.34c.94.18,1.48.26,2.42.41A25.47,25.47,0,0,0,288,211c.42-.94.14-79.68.14-88.23-2-1-3.46-1.46-5.05-2.76-12.94-10.64-4.24-30.95,11.89-29.25a16.42,16.42,0,0,1,.42,32.57v88.37H305c0-.3-.07-.24.22-.17,1-.51,8.32-7.92,9.76-9.27a33.85,33.85,0,0,0,3.09-3l14.3-13.85c2.46-2.52,2.11-2,2.09-4.08V165.81c0-6.13-.27-19.89,0-25.07-7.19-1.23-13.73-8.9-12.66-17.92a16.32,16.32,0,0,1,16.26-14.46c16.5,0,22.17,21.46,8.94,30.14-2.79,1.84-3.93,1.64-5.33,2.39v41.32c0,2.82.4,3.85-.7,4.88l-10.46,10.06c-.51.5-.83,1-1.34,1.49L317.4,210.19a26.82,26.82,0,0,0,3.71-.68A105,105,0,0,0,344,201.88c3.14-1.6,5.33-2.52,8.59-4.5l5.34-3.37c.87-.58,1.77-1.15,2.62-1.75a115.15,115.15,0,0,0,11.92-9.89L376.8,178c2-2.43,3.91-4.33,6-7.12.66-.89,1.24-1.53,1.88-2.48s1.18-1.68,1.82-2.55c5.51-7.45,11.78-21,14.12-29.54A117.2,117.2,0,0,0,405,110v-8.69a104.8,104.8,0,0,0-1.21-11.86,116.69,116.69,0,0,0-3.24-14.24c-2.95-10.37-10.12-24.79-17-33.25a12.93,12.93,0,0,0-.95-1.16C384.27,53.3,380,55.33,381.09,58c.39.91.77,1.77,1.17,2.77.76,1.91,1.45,3.76,2.11,5.75,5.9,17.53,6.91,36.3.18,53.71-3.47,9-5.93,12.12-10.7,19-.59.86-.2.78-1.16.92.51-1.41,1.44-2.82,2.14-4.3a85.66,85.66,0,0,0,2.45-68.11L373.4,59.1c-8.95.65-16.95-.72-19.14-11.34-1.51-7.29,1.07-10-.56-13.67a34.67,34.67,0,0,0-6.22-9.27c-.71-.72-1.17-1.33-1.89-2l-6.17-5.39C333.89,13,314.7,1.39,309.8.56c-1.75,0-4-.35-5.66-.44a109.74,109.74,0,0,0-38.35,5.44,112.77,112.77,0,0,0-15.21,6.58,101.51,101.51,0,0,0-17.14,11.22,109.33,109.33,0,0,0-9.81,9l-5.87,6.57c-.49.58-.9,1.12-1.34,1.71s-.9,1.13-1.43,1.84c-1,1.27-1.71,2.39-2.65,3.68a101.24,101.24,0,0,0-5.82,9.68,103.62,103.62,0,0,0-10.76,30.29,96.06,96.06,0,0,0-1.8,16.58v5.64a107.83,107.83,0,0,0,3,23,101.38,101.38,0,0,0,6.5,18.61A93.54,93.54,0,0,0,210,162.14a101.67,101.67,0,0,0,18.5,22.09L235.4,190a94.85,94.85,0,0,0,9.31,6.39c8.89,5.35,14,7.37,23.75,10.7a10.51,10.51,0,0,0,2.65.68"/><path class="cls-2" d="M291.19,96.05c-5.5,1.15-10.29,6.12-9,13.11a11.24,11.24,0,1,0,22.08-4.23c-1-5.33-6.41-10.26-13.06-8.88"/><path class="cls-3" d="M335.85,113.77A11.1,11.1,0,0,0,327.1,127a11.22,11.22,0,1,0,22-4.61,11.12,11.12,0,0,0-13.22-8.66"/><path class="cls-4" d="M250.47,51.76A11.27,11.27,0,1,0,263,61.55a11.21,11.21,0,0,0-12.55-9.79"/><path class="cls-5" d="M374.25,31.32a64.74,64.74,0,0,0-5.81-5.48,106.55,106.55,0,0,0-15.73-11.31l-4.93-2.7C346.44,11,338.37,7.22,337,7.11c.19.16,5.84,3.05,7.85,4.39A42.64,42.64,0,0,1,351.73,17c5.12,4.52,7.26,8.78,11,13.79,6.25-.18,3.7-1.26,11.54.49"/><path class="cls-6" d="M55.67,219.74a1.27,1.27,0,0,1,1.07.56,1.92,1.92,0,0,1,.43,1.19V231.9a2.2,2.2,0,0,1-.43,1.26,1.24,1.24,0,0,1-1.07.62H35.79c-.43,0-.65.26-.65.76v71.25a1.94,1.94,0,0,1-.43,1.19,1.3,1.3,0,0,1-1.07.56H23.75a1.37,1.37,0,0,1-1-.56,1.83,1.83,0,0,1-.48-1.19V234.54c0-.5-.22-.76-.65-.76h-20a1.4,1.4,0,0,1-1.13-.62A2.07,2.07,0,0,1,0,231.9V221.49a1.82,1.82,0,0,1,.48-1.19,1.45,1.45,0,0,1,1.13-.56Z"/><path class="cls-6" d="M87.16,271.79a.56.56,0,0,0,.1-.37A35.42,35.42,0,0,0,85.81,268a14.12,14.12,0,0,0-2.47-3.64,13.89,13.89,0,0,0-3.87-2.89,12,12,0,0,0-5.53-1.19,10.46,10.46,0,0,0-5.64,1.44,14.39,14.39,0,0,0-5.91,7.09c-.47,1.26-.77,2.13-.92,2.64v.37a.29.29,0,0,0,.22.13H86.83c.22,0,.33,0,.33-.13M73.72,248.08a23,23,0,0,1,18,8.6A29.84,29.84,0,0,1,97,267.15a46.74,46.74,0,0,1,1.67,14.55,3.4,3.4,0,0,1-.33,1.76c-.21.33-.68.5-1.39.5q-9.24.12-16.77.13H60.94a.29.29,0,0,0-.22.12v.13a14.77,14.77,0,0,0,.81,2.38,15.53,15.53,0,0,0,2.2,3.7,17.25,17.25,0,0,0,4,3.64,14.08,14.08,0,0,0,6.23,2.19,16.57,16.57,0,0,0,5.8,0,19,19,0,0,0,4.57-1.44,14,14,0,0,0,3.44-2.26A20.19,20.19,0,0,0,90.17,290a.64.64,0,0,1,1-.12l5.81,5.76a1.51,1.51,0,0,1,.43.88,1.07,1.07,0,0,1-.22.75c-.57.76-1.45,1.8-2.63,3.14a22.84,22.84,0,0,1-4.62,3.89,29.07,29.07,0,0,1-6.83,3.2,26.93,26.93,0,0,1-9.13,1.19,22.11,22.11,0,0,1-9.84-2.57A27,27,0,0,1,56,299.58,32.12,32.12,0,0,1,50.51,290a33.16,33.16,0,0,1-2-11.73,34.42,34.42,0,0,1,2-11.79,31,31,0,0,1,5.42-9.59,26.22,26.22,0,0,1,8.06-6.46A21.09,21.09,0,0,1,73.72,248.08Z"/><path class="cls-6" d="M142.5,301.9a2,2,0,0,1,.27,1.94,2.81,2.81,0,0,1-1.23,1.44,29.75,29.75,0,0,1-5.11,2.2,21.4,21.4,0,0,1-6.71.94,19.06,19.06,0,0,1-9.14-2.38,25.89,25.89,0,0,1-7.74-6.46,32.49,32.49,0,0,1-5.32-9.6,34.66,34.66,0,0,1-2-11.79v-.25a34.66,34.66,0,0,1,2-11.79,32.49,32.49,0,0,1,5.32-9.6,25.74,25.74,0,0,1,7.74-6.46,19,19,0,0,1,9.14-2.38,24.61,24.61,0,0,1,11.82,3.13,14.78,14.78,0,0,1,1,1.07,1.78,1.78,0,0,1,.16,1.69l-3.87,8.28a3.28,3.28,0,0,1-1.45,1.45,1.64,1.64,0,0,1-1.78-.19,13.26,13.26,0,0,0-5.9-1.26,9.76,9.76,0,0,0-4.84,1.26,12.34,12.34,0,0,0-3.92,3.45,17.43,17.43,0,0,0-2.64,5.14,20.32,20.32,0,0,0-1,6.33,21,21,0,0,0,1,6.4A16.5,16.5,0,0,0,121,289.6a12.91,12.91,0,0,0,3.92,3.39,9.76,9.76,0,0,0,4.84,1.26,13.26,13.26,0,0,0,5.9-1.26,1.64,1.64,0,0,1,1.78-.19,3.23,3.23,0,0,1,1.45,1.45Z"/><path class="cls-6" d="M176.57,247.71a16.45,16.45,0,0,1,13.81,7,23.82,23.82,0,0,1,3.65,8,39.76,39.76,0,0,1,1.24,10.29v31.74c0,1.92-.9,2.88-2.69,2.88h-7.2a2.62,2.62,0,0,1-1.93-.75,2.88,2.88,0,0,1-.75-2.13V272.54a14.9,14.9,0,0,0-.43-3.32,10.83,10.83,0,0,0-1.45-3.39,8.77,8.77,0,0,0-2.75-2.63,8,8,0,0,0-4.29-1.07,8.34,8.34,0,0,0-6.88,3.45,14.4,14.4,0,0,0-2.69,9.1v30a2.67,2.67,0,0,1-2.79,2.88h-7.74a2.49,2.49,0,0,1-1.83-.75,2.88,2.88,0,0,1-.75-2.13V222.37a2.76,2.76,0,0,1,.75-1.94,2.38,2.38,0,0,1,1.83-.82H161a2.27,2.27,0,0,1,1.72.82,2.76,2.76,0,0,1,.75,1.94v30.86c.07.75.39,1.15,1,1.19a1.29,1.29,0,0,0,1.29-.69,12.08,12.08,0,0,1,4.94-4.45,13.14,13.14,0,0,1,5.91-1.57"/><path class="cls-6" d="M225.15,270.79c3,.58,5.8,1.25,8.38,2a22.67,22.67,0,0,1,6.72,3.14,14.08,14.08,0,0,1,4.45,5.14,16.84,16.84,0,0,1,1.62,7.78,19.12,19.12,0,0,1-1.56,7.72,17.1,17.1,0,0,1-4.41,6.08,21.08,21.08,0,0,1-6.82,4,25.72,25.72,0,0,1-8.81,1.44,22,22,0,0,1-6.83-1.06,20.27,20.27,0,0,1-10.75-8.22,24.57,24.57,0,0,1-3.06-6.77,2.62,2.62,0,0,1,.32-2.76,2.19,2.19,0,0,1,2-1.13h7.63a2.62,2.62,0,0,1,2.15,1.13,9.89,9.89,0,0,0,4.29,4.26,11.49,11.49,0,0,0,4.84,1.13,12.77,12.77,0,0,0,6.07-1.25,4,4,0,0,0,2.31-3.64,5.2,5.2,0,0,0-.43-2.2,4.12,4.12,0,0,0-1.56-1.69,11.18,11.18,0,0,0-3.17-1.32q-2-.56-5.15-1.19c-1.8-.33-3.8-.81-6-1.44a23.1,23.1,0,0,1-6.24-2.82,16,16,0,0,1-4.83-5,14.48,14.48,0,0,1-1.94-7.84,18.67,18.67,0,0,1,5.06-12.67,18.94,18.94,0,0,1,6.07-4.26,19.94,19.94,0,0,1,8.33-1.63,21,21,0,0,1,12.68,3.82,21.51,21.51,0,0,1,7.63,10.35,3.35,3.35,0,0,1-.43,2.64,1.89,1.89,0,0,1-.86,1,2.55,2.55,0,0,1-1.29.38h-7.74a2.31,2.31,0,0,1-1.24-.38,5.17,5.17,0,0,1-1.12-1,6.16,6.16,0,0,0-3-2.45,13.23,13.23,0,0,0-4.62-1.07,10.29,10.29,0,0,0-3.44.26,4.3,4.3,0,0,0-2,1.12,3.74,3.74,0,0,0-.92,1.7,7.78,7.78,0,0,0-.21,1.69,3.16,3.16,0,0,0,1.56,3,28,28,0,0,0,6.29,2"/><path class="cls-6" d="M305.1,304.41a3.19,3.19,0,0,1-.81,2.25,2.55,2.55,0,0,1-2,.88h-7.1a2.56,2.56,0,0,1-2-.88,3.19,3.19,0,0,1-.81-2.25v-16.5c0-1.46,0-2.8.05-4s.06-2.2.06-2.95v-1.26a21.15,21.15,0,0,0-1.94-9.59,15.21,15.21,0,0,0-5.48-6.09,12.71,12.71,0,0,0-5.37-1.94,12.28,12.28,0,0,0-5.37.56,14.11,14.11,0,0,0-4.79,2.83,15.12,15.12,0,0,0-3.6,4.83,15.61,15.61,0,0,0-1.56,9.09,21.18,21.18,0,0,0,3,8.66,15.48,15.48,0,0,0,6.18,5.77,10.21,10.21,0,0,0,8.22.44,1.85,1.85,0,0,1,1.83.18A4.75,4.75,0,0,1,284.9,296l2.9,9.28a1.16,1.16,0,0,1-.75,1.51,23.36,23.36,0,0,1-11.23,1.63,23.73,23.73,0,0,1-9.89-3.39,27.36,27.36,0,0,1-7.74-7.27,31.67,31.67,0,0,1-4.84-10,36.13,36.13,0,0,1-1.23-11.66,35.32,35.32,0,0,1,3-12.3,27.34,27.34,0,0,1,6.45-9,25.35,25.35,0,0,1,8.92-5.45,21.45,21.45,0,0,1,9.88-1.07,18.12,18.12,0,0,1,9.35,4.14c.51.67,1,.92,1.45.75s.7-.71.7-1.63a3.5,3.5,0,0,1,.81-2.26,2.36,2.36,0,0,1,1.88-1h7.74a2.43,2.43,0,0,1,2,1,3.5,3.5,0,0,1,.81,2.26Z"/><path class="cls-6" d="M362,248.21a1.56,1.56,0,0,1,1.45,1.13,2.63,2.63,0,0,1,0,2.26l-19.78,54.06a2.28,2.28,0,0,1-2.36,1.88H335a3.47,3.47,0,0,1-1.67-.44,2,2,0,0,1-1-1.44l-19-54.19a2.83,2.83,0,0,1,.21-2.13,1.8,1.8,0,0,1,1.72-1.13h7.53c1.36,0,2.32.79,2.9,2.38l11.82,32.74c.36.92.75.92,1.18,0l11.61-32.61a3.4,3.4,0,0,1,3.33-2.51Z"/><path class="cls-6" d="M415.9,304.41a3.19,3.19,0,0,1-.81,2.25,2.55,2.55,0,0,1-2,.88H406a2.56,2.56,0,0,1-2-.88,3.19,3.19,0,0,1-.81-2.25v-16.5c0-1.46,0-2.8,0-4s.06-2.2.06-2.95v-1.26a21.15,21.15,0,0,0-1.94-9.59,15.21,15.21,0,0,0-5.48-6.09,12.71,12.71,0,0,0-5.37-1.94,12.28,12.28,0,0,0-5.37.56,14.11,14.11,0,0,0-4.79,2.83,15.12,15.12,0,0,0-3.6,4.83,15.61,15.61,0,0,0-1.56,9.09,21.18,21.18,0,0,0,3,8.66,15.48,15.48,0,0,0,6.18,5.77,10.21,10.21,0,0,0,8.22.44,1.85,1.85,0,0,1,1.83.18A4.75,4.75,0,0,1,395.7,296l2.9,9.28a1.16,1.16,0,0,1-.75,1.51,23.36,23.36,0,0,1-11.23,1.63,23.73,23.73,0,0,1-9.89-3.39,27.36,27.36,0,0,1-7.74-7.27,31.67,31.67,0,0,1-4.84-10,36.13,36.13,0,0,1-1.23-11.66,35.32,35.32,0,0,1,3-12.3,27.34,27.34,0,0,1,6.45-9,25.35,25.35,0,0,1,8.92-5.45,21.45,21.45,0,0,1,9.88-1.07,18.12,18.12,0,0,1,9.35,4.14c.5.67,1,.92,1.45.75s.7-.71.7-1.63a3.5,3.5,0,0,1,.81-2.26,2.36,2.36,0,0,1,1.88-1h7.74a2.43,2.43,0,0,1,2,1,3.5,3.5,0,0,1,.81,2.26Z"/><path class="cls-6" d="M457.28,247.71a15.9,15.9,0,0,1,7.68,1.82,16.86,16.86,0,0,1,5.8,5.2,25.29,25.29,0,0,1,3.71,8,38.33,38.33,0,0,1,1.29,10.29v31.48a3.27,3.27,0,0,1-.7,2.13,2.26,2.26,0,0,1-1.88.88h-7.31a2.42,2.42,0,0,1-1.93-.88,3.15,3.15,0,0,1-.75-2.13v-32a14.9,14.9,0,0,0-.43-3.32,11.46,11.46,0,0,0-1.4-3.39,8.25,8.25,0,0,0-2.63-2.63,7.76,7.76,0,0,0-4.25-1.07,8.49,8.49,0,0,0-7.14,3.45,14.57,14.57,0,0,0-2.64,9.1v29.85a3,3,0,0,1-.8,2.13,2.58,2.58,0,0,1-2,.88h-7.1a2.58,2.58,0,0,1-2-.88,3,3,0,0,1-.81-2.13V252.47a2.65,2.65,0,0,1,.81-1.94,2.7,2.7,0,0,1,2-.82h6.56a2.35,2.35,0,0,1,1.88.82,2.86,2.86,0,0,1,.7,1.94v.76a1,1,0,0,0,.38.81c.25.21.41.32.48.32a1.11,1.11,0,0,0,1.4-.63,12.15,12.15,0,0,1,4.94-4.45,13.52,13.52,0,0,1,6.13-1.57"/><path class="cls-6" d="M519,247.71a15.91,15.91,0,0,1,7.69,1.82,17,17,0,0,1,5.8,5.2,25.51,25.51,0,0,1,3.71,8,38.33,38.33,0,0,1,1.29,10.29v31.48a3.33,3.33,0,0,1-.7,2.13,2.27,2.27,0,0,1-1.88.88h-7.31a2.44,2.44,0,0,1-1.94-.88,3.15,3.15,0,0,1-.75-2.13v-32a14.34,14.34,0,0,0-.43-3.32,11.44,11.44,0,0,0-1.39-3.39,8.39,8.39,0,0,0-2.64-2.63,7.73,7.73,0,0,0-4.24-1.07,8.52,8.52,0,0,0-7.15,3.45,14.63,14.63,0,0,0-2.63,9.1v29.85a3,3,0,0,1-.81,2.13,2.57,2.57,0,0,1-2,.88H496.5a2.58,2.58,0,0,1-2-.88,3,3,0,0,1-.8-2.13V252.47a2.77,2.77,0,0,1,2.79-2.76h6.56a2.38,2.38,0,0,1,1.88.82,2.91,2.91,0,0,1,.7,1.94v.76a1,1,0,0,0,.37.81c.25.21.41.32.49.32a1.1,1.1,0,0,0,1.39-.63,12.17,12.17,0,0,1,5-4.45,13.48,13.48,0,0,1,6.12-1.57"/><path class="cls-6" d="M598.92,304.41a3.19,3.19,0,0,1-.81,2.25,2.57,2.57,0,0,1-2,.88H589a2.58,2.58,0,0,1-2-.88,3.23,3.23,0,0,1-.8-2.25v-16.5c0-1.46,0-2.8,0-4s.05-2.2.05-2.95v-1.26a21.16,21.16,0,0,0-1.93-9.59,15.21,15.21,0,0,0-5.48-6.09,12.71,12.71,0,0,0-5.37-1.94,12.32,12.32,0,0,0-5.38.56,14.06,14.06,0,0,0-4.78,2.83,15,15,0,0,0-3.6,4.83,15.61,15.61,0,0,0-1.56,9.09,21.18,21.18,0,0,0,3,8.66,15.35,15.35,0,0,0,6.18,5.77,10.21,10.21,0,0,0,8.22.44,1.86,1.86,0,0,1,1.83.18,4.75,4.75,0,0,1,1.29,1.57l2.9,9.28a1.16,1.16,0,0,1-.75,1.51,23.39,23.39,0,0,1-11.24,1.63,23.74,23.74,0,0,1-9.88-3.39,27.09,27.09,0,0,1-7.74-7.27,31.46,31.46,0,0,1-4.84-10,35.59,35.59,0,0,1-1.23-11.66,35.1,35.1,0,0,1,3-12.3,27.31,27.31,0,0,1,6.44-9,25.52,25.52,0,0,1,8.92-5.45,21.49,21.49,0,0,1,9.89-1.07,18.12,18.12,0,0,1,9.35,4.14c.5.67,1,.92,1.45.75s.7-.71.7-1.63a3.5,3.5,0,0,1,.81-2.26,2.34,2.34,0,0,1,1.88-1h7.73a2.44,2.44,0,0,1,2,1,3.5,3.5,0,0,1,.81,2.26Z"/><path class="cls-7" d="M69.34,358.11v10.41H66.46v-27.1h6.83q4.27,0,6.53,2a7.38,7.38,0,0,1,2.25,5.85,8.52,8.52,0,0,1-2.53,6.35,8.31,8.31,0,0,1-3,1.87,11.7,11.7,0,0,1-4,.63Zm0-13.95v11.19h3.15a7.11,7.11,0,0,0,4.94-1.54,5.56,5.56,0,0,0,1.69-4.34q0-5.31-6.16-5.31Z"/><path class="cls-7" d="M83.41,359.45a13.58,13.58,0,0,0,.48,2.83A6,6,0,0,0,85,364.45a5.36,5.36,0,0,0,4.38,1.93A8.89,8.89,0,0,0,95,364.17l1.35,2.19a15.82,15.82,0,0,1-3.63,2A10.87,10.87,0,0,1,89,369a7.64,7.64,0,0,1-6.1-2.74,9.15,9.15,0,0,1-1.73-3.2,14.59,14.59,0,0,1-.57-4.3,12,12,0,0,1,.6-3.86A10.09,10.09,0,0,1,83,351.66a9,9,0,0,1,2.84-2.16,8,8,0,0,1,3.51-.78A6.67,6.67,0,0,1,95,351.34a10.9,10.9,0,0,1,1.93,6.84v1.27Zm10.68-2.57a7,7,0,0,0-1.45-4.12,4.19,4.19,0,0,0-3.37-1.46,5.29,5.29,0,0,0-3.89,1.57,6.42,6.42,0,0,0-1.11,1.73,12.23,12.23,0,0,0-.71,2.28Z"/><path class="cls-7" d="M107.82,369a9.75,9.75,0,0,1-3.8-.7,7.83,7.83,0,0,1-2.94-2.11,10.52,10.52,0,0,1-2.46-7.2,12.83,12.83,0,0,1,.67-4.24,9.73,9.73,0,0,1,1.92-3.26,9.36,9.36,0,0,1,3-2,9.79,9.79,0,0,1,3.78-.72,8.39,8.39,0,0,1,6.58,2.74,10.86,10.86,0,0,1,2.4,7.42,12.19,12.19,0,0,1-.63,4,9.9,9.9,0,0,1-1.81,3.22,8.28,8.28,0,0,1-2.92,2.09A9.38,9.38,0,0,1,107.82,369ZM108,351.3a6,6,0,0,0-4.76,2,6.21,6.21,0,0,0-1.34,2.42,11.46,11.46,0,0,0-.42,3.26,8,8,0,0,0,1.74,5.41v0a6,6,0,0,0,4.7,2,6.56,6.56,0,0,0,2.67-.5,5.51,5.51,0,0,0,2-1.44,7.29,7.29,0,0,0,1.22-2.41,11.15,11.15,0,0,0,.42-3.19,8.59,8.59,0,0,0-1.61-5.61A5.72,5.72,0,0,0,108,351.3Z"/><path class="cls-7" d="M122,376.91h-2.72V349.17H122v2.44a7.09,7.09,0,0,1,2.67-2.13,10.08,10.08,0,0,1,3.68-.76,7.09,7.09,0,0,1,5.85,2.62,8.94,8.94,0,0,1,1.55,3,13.07,13.07,0,0,1,.53,3.87,14.32,14.32,0,0,1-.61,4.32,11.29,11.29,0,0,1-1.73,3.43,8.33,8.33,0,0,1-2.81,2.25,7.89,7.89,0,0,1-3.54.79,6.68,6.68,0,0,1-3.15-.64A8,8,0,0,1,122,366.4Zm0-14.12a8.22,8.22,0,0,0,2.54,2.68,6,6,0,0,0,3.18.91,4.86,4.86,0,0,0,2.3-.56,5.5,5.5,0,0,0,1.82-1.63,8.33,8.33,0,0,0,1.22-2.62,12.42,12.42,0,0,0,.43-3.35,8,8,0,0,0-1.5-5.12,4.69,4.69,0,0,0-1.68-1.31,5.45,5.45,0,0,0-2.12-.49,17,17,0,0,0-1.81.35,8.26,8.26,0,0,0-1.73.67,6.54,6.54,0,0,0-1.51,1.06,5.46,5.46,0,0,0-1.14,1.53Z"/><path class="cls-7" d="M140.28,363.26a4.31,4.31,0,0,0,.48,2.33,1.76,1.76,0,0,0,1.6.72,3.32,3.32,0,0,0,1.13-.25,11.07,11.07,0,0,0,1.61-.79v2.79a8.49,8.49,0,0,1-1.6.63,5.83,5.83,0,0,1-1.35.19c-3.06,0-4.59-1.81-4.59-5.41V340.38h2.72Z"/><path class="cls-7" d="M148.28,359.45a12.39,12.39,0,0,0,.48,2.83,6,6,0,0,0,1.1,2.17,5.36,5.36,0,0,0,4.39,1.93,8.89,8.89,0,0,0,5.61-2.21l1.34,2.19a15.42,15.42,0,0,1-3.63,2,10.77,10.77,0,0,1-3.68.65,7.63,7.63,0,0,1-6.1-2.74,9,9,0,0,1-1.73-3.2,14.25,14.25,0,0,1-.58-4.3,12,12,0,0,1,.6-3.86,10.29,10.29,0,0,1,1.78-3.21,9.12,9.12,0,0,1,2.84-2.16,8,8,0,0,1,3.51-.78,6.7,6.7,0,0,1,5.65,2.62,11,11,0,0,1,1.93,6.84v1.27ZM159,356.88a7.1,7.1,0,0,0-1.44-4.12,4.21,4.21,0,0,0-3.38-1.46,5.31,5.31,0,0,0-3.89,1.57,6.17,6.17,0,0,0-1.1,1.73,10.9,10.9,0,0,0-.71,2.28Z"/><path class="cls-7" d="M176,368.84a1.87,1.87,0,0,1-1.39-.57,1.92,1.92,0,0,1-.57-1.42,1.86,1.86,0,0,1,.57-1.42,1.92,1.92,0,0,1,1.39-.54,2.05,2.05,0,0,1,1.43.54,1.81,1.81,0,0,1,.6,1.42,2,2,0,0,1-.16.78,2.16,2.16,0,0,1-.44.63,2,2,0,0,1-.64.43A2.09,2.09,0,0,1,176,368.84Z"/><path class="cls-7" d="M199.5,344.16v24.36h-2.89V344.16h-7.5v-2.74H207v2.74Z"/><path class="cls-7" d="M204.49,359.45a12.39,12.39,0,0,0,.48,2.83,6.15,6.15,0,0,0,1.1,2.17,5.36,5.36,0,0,0,4.39,1.93,8.89,8.89,0,0,0,5.61-2.21l1.34,2.19a15.42,15.42,0,0,1-3.63,2,10.77,10.77,0,0,1-3.68.65,7.63,7.63,0,0,1-6.1-2.74,9,9,0,0,1-1.73-3.2,14.25,14.25,0,0,1-.58-4.3,11.74,11.74,0,0,1,.61-3.86,10.07,10.07,0,0,1,1.77-3.21,9,9,0,0,1,2.85-2.16,7.91,7.91,0,0,1,3.5-.78,6.7,6.7,0,0,1,5.65,2.62,11,11,0,0,1,1.93,6.84v1.27Zm10.67-2.57a7.1,7.1,0,0,0-1.44-4.12,4.21,4.21,0,0,0-3.38-1.46,5.32,5.32,0,0,0-3.89,1.57,6.17,6.17,0,0,0-1.1,1.73,11.52,11.52,0,0,0-.71,2.28Z"/><path class="cls-7" d="M234.91,366.91a18.2,18.2,0,0,1-3.41,1.54,10,10,0,0,1-3.09.52,8.24,8.24,0,0,1-6.44-2.74,9.17,9.17,0,0,1-1.8-3.12,12.14,12.14,0,0,1-.6-3.95,11.75,11.75,0,0,1,.72-4.15,10.58,10.58,0,0,1,2-3.35,9.38,9.38,0,0,1,7-2.94,10,10,0,0,1,5.74,1.87l-1.57,2.09A8.42,8.42,0,0,0,229,351.3a6.07,6.07,0,0,0-4.8,2.16,8.28,8.28,0,0,0-1.87,5.61,8,8,0,0,0,1.7,5.35,5.54,5.54,0,0,0,4.42,2,8.23,8.23,0,0,0,4.9-1.68Z"/><path class="cls-7" d="M249.12,368.52V357a7.23,7.23,0,0,0-1.05-4.36,3.87,3.87,0,0,0-3.28-1.37q-3.06,0-5.37,4v13.23h-2.74V340.38h2.74V351.3a7,7,0,0,1,2.55-2,8.12,8.12,0,0,1,3.25-.61,6,6,0,0,1,4.93,2,9,9,0,0,1,1.69,5.89v11.87Z"/><path class="cls-7" d="M256.05,368.52h-2.74V349.17h2.74v2a7.47,7.47,0,0,1,5.76-2.43,6,6,0,0,1,4.94,2.1,9.39,9.39,0,0,1,1.71,6v11.66h-2.72V357.35a7.6,7.6,0,0,0-1.08-4.46,3.89,3.89,0,0,0-3.09-1.59,8.67,8.67,0,0,0-3.25,1,5.81,5.81,0,0,0-2.27,2.29Z"/><path class="cls-7" d="M279.65,369a9.84,9.84,0,0,1-3.81-.7,7.91,7.91,0,0,1-2.94-2.11,10.56,10.56,0,0,1-2.45-7.2,12.57,12.57,0,0,1,.67-4.24,9.57,9.57,0,0,1,1.92-3.26,9.26,9.26,0,0,1,3-2,9.79,9.79,0,0,1,3.78-.72,8.37,8.37,0,0,1,6.57,2.74,10.86,10.86,0,0,1,2.4,7.42,12.19,12.19,0,0,1-.62,4,10.08,10.08,0,0,1-1.81,3.22,8.28,8.28,0,0,1-2.92,2.09A9.38,9.38,0,0,1,279.65,369Zm.13-17.67a6,6,0,0,0-4.76,2,6.19,6.19,0,0,0-1.33,2.42,11.1,11.1,0,0,0-.43,3.26A8,8,0,0,0,275,364.4v0a6,6,0,0,0,4.71,2,6.59,6.59,0,0,0,2.67-.5,5.48,5.48,0,0,0,2-1.44,7.11,7.11,0,0,0,1.22-2.41,11.14,11.14,0,0,0,.43-3.19,8.53,8.53,0,0,0-1.62-5.61A5.72,5.72,0,0,0,279.78,351.3Z"/><path class="cls-7" d="M293.61,363.26a4.42,4.42,0,0,0,.47,2.33,1.79,1.79,0,0,0,1.61.72,3.32,3.32,0,0,0,1.13-.25,11.07,11.07,0,0,0,1.61-.79v2.79a8.31,8.31,0,0,1-1.61.63,5.68,5.68,0,0,1-1.34.19c-3.06,0-4.59-1.81-4.59-5.41V340.38h2.72Z"/><path class="cls-7" d="M308.05,369a9.84,9.84,0,0,1-3.81-.7,7.83,7.83,0,0,1-2.94-2.11,10.51,10.51,0,0,1-2.45-7.2,12.57,12.57,0,0,1,.67-4.24,9.55,9.55,0,0,1,1.91-3.26,9.41,9.41,0,0,1,3-2,9.79,9.79,0,0,1,3.78-.72,8.38,8.38,0,0,1,6.57,2.74,10.86,10.86,0,0,1,2.4,7.42,12.46,12.46,0,0,1-.62,4,9.92,9.92,0,0,1-1.82,3.22,8.24,8.24,0,0,1-2.91,2.09A9.42,9.42,0,0,1,308.05,369Zm.13-17.67a6.07,6.07,0,0,0-6.09,4.43,11.1,11.1,0,0,0-.43,3.26,8,8,0,0,0,1.74,5.41v0a6,6,0,0,0,4.7,2,6.64,6.64,0,0,0,2.68-.5,5.48,5.48,0,0,0,2-1.44A7.11,7.11,0,0,0,314,362a11.15,11.15,0,0,0,.42-3.19,8.53,8.53,0,0,0-1.61-5.61A5.72,5.72,0,0,0,308.18,351.3Z"/><path class="cls-7" d="M335.86,366.63a16.3,16.3,0,0,1-.61,4.64,8.29,8.29,0,0,1-1.79,3.27,8.05,8.05,0,0,1-3.08,1.87,12.46,12.46,0,0,1-4.29.69,11.31,11.31,0,0,1-2.95-.43,18.66,18.66,0,0,1-3.38-1.33l1.85-2.21a7.94,7.94,0,0,0,4.5,1.4q7,0,7-7.47v-.68a6.92,6.92,0,0,1-2.64,2A9,9,0,0,1,327,369a7.53,7.53,0,0,1-5.94-2.64,10.57,10.57,0,0,1-2.26-7.17,11.23,11.23,0,0,1,2.43-7.48,8,8,0,0,1,6.48-3,7.2,7.2,0,0,1,3,.62,7.75,7.75,0,0,1,2.37,1.61v-1.78h2.74Zm-2.74-12.13c-1.59-2.13-3.36-3.2-5.33-3.2a5.34,5.34,0,0,0-4.4,2.08,8.64,8.64,0,0,0-1.76,5.65,8.53,8.53,0,0,0,1.57,5.48,5,5,0,0,0,4,1.87,6.63,6.63,0,0,0,5.88-3.49Z"/><path class="cls-7" d="M345.91,371.92a17.8,17.8,0,0,1-1.12,2.27,7.16,7.16,0,0,1-1.28,1.62,4.63,4.63,0,0,1-1.54,1,5.15,5.15,0,0,1-1.9.33,4,4,0,0,1-1-.14c-.35-.09-.73-.2-1.13-.34l.89-2.74a2,2,0,0,0,1.3.49c1.2,0,2.18-.9,3-2.7l1.61-3.81q-.86-2.25-1.74-4.55t-1.75-4.64l-.9-2.37c-.31-.81-.62-1.62-.94-2.44l-.92-2.4c-.31-.8-.6-1.56-.87-2.29h3l5.64,15.19,5.93-15.19h3Z"/><path class="cls-7" d="M368.38,368.84a1.89,1.89,0,0,1-1.4-.57,1.92,1.92,0,0,1-.57-1.42,1.86,1.86,0,0,1,.57-1.42,2,2,0,0,1,1.4-.54,2,2,0,0,1,1.42.54,1.81,1.81,0,0,1,.6,1.42,2,2,0,0,1-.16.78,2,2,0,0,1-.44.63,1.9,1.9,0,0,1-.64.43A2.08,2.08,0,0,1,368.38,368.84Z"/><path class="cls-7" d="M388.2,368.93a10.2,10.2,0,0,1-3.36-.71,12,12,0,0,1-3.1-1.82l1.81-2.21a7.83,7.83,0,0,0,4.91,2,6.61,6.61,0,0,0,4.23-1.1,3.74,3.74,0,0,0,1.44-3.13,4.66,4.66,0,0,0-.25-1.57,3.66,3.66,0,0,0-.68-1.23,14,14,0,0,0-1.69-1.37c-.76-.54-1.68-1.13-2.77-1.76-2.7-1.61-4.43-2.95-5.17-4a6.72,6.72,0,0,1-1.15-3.91,6.45,6.45,0,0,1,2.32-5.06A8.76,8.76,0,0,1,390.8,341a10.22,10.22,0,0,1,3.38.72,12.08,12.08,0,0,1,3.1,1.83l-1.79,2.19a9.87,9.87,0,0,0-2.49-1.52,6.47,6.47,0,0,0-2.42-.5,5.61,5.61,0,0,0-3.84,1.21,3.8,3.8,0,0,0-1.36,3,5,5,0,0,0,.24,1.58,3.5,3.5,0,0,0,.67,1.22c.19.18.43.38.73.62s.63.49,1,.76l1.27.84c.46.29.94.59,1.43.88a28,28,0,0,1,3.06,2,11.68,11.68,0,0,1,1.94,1.82,6.31,6.31,0,0,1,1.33,4,6.78,6.78,0,0,1-2.27,5.27c-1.49,1.35-3.68,2-6.59,2Z"/><path class="cls-7" d="M399.59,345.65a1.78,1.78,0,0,1-.72-.14,1.83,1.83,0,0,1-.6-.39,1.79,1.79,0,0,1-.42-.62,2,2,0,0,1-.15-.77,1.8,1.8,0,0,1,.16-.77,1.83,1.83,0,0,1,.43-.59,1.71,1.71,0,0,1,.6-.38,1.89,1.89,0,0,1,.7-.13,2,2,0,0,1,.73.13,1.75,1.75,0,0,1,.61.38,1.83,1.83,0,0,1,.43.59,2,2,0,0,1,.16.77,1.9,1.9,0,0,1-1.93,1.92Zm-1.34,22.87V349.17H401v19.35Z"/><path class="cls-7" d="M425.63,368.52V357a13.48,13.48,0,0,0-.24-2.76,4.12,4.12,0,0,0-.75-1.74,2.53,2.53,0,0,0-1.18-.89,4.66,4.66,0,0,0-1.76-.3,4.3,4.3,0,0,0-3.33,1.69,6.31,6.31,0,0,0-1.45,4.29v11.24H414.2V356.86a6.94,6.94,0,0,0-1-4.14,3.65,3.65,0,0,0-3-1.42,6.63,6.63,0,0,0-2.66,1,6.24,6.24,0,0,0-2,2.29v13.91h-2.72V349.17h2.72v2a6.65,6.65,0,0,1,5.12-2.41,6.17,6.17,0,0,1,2,.33,6,6,0,0,1,1.73.93,8.53,8.53,0,0,1,.92,1,5.94,5.94,0,0,1,.74,1.13,8.08,8.08,0,0,1,.94-1.19,7.8,7.8,0,0,1,1.1-1,6.69,6.69,0,0,1,3.78-1.21q6.56,0,6.56,8v11.83Z"/><path class="cls-7" d="M434,376.91h-2.72V349.17H434v2.44a7.09,7.09,0,0,1,2.67-2.13,10.12,10.12,0,0,1,3.68-.76,7.09,7.09,0,0,1,5.85,2.62,8.76,8.76,0,0,1,1.55,3,12.75,12.75,0,0,1,.53,3.87,14.32,14.32,0,0,1-.61,4.32,11.29,11.29,0,0,1-1.73,3.43,8.33,8.33,0,0,1-2.81,2.25,7.86,7.86,0,0,1-3.54.79,6.62,6.62,0,0,1-3.14-.64A7.9,7.9,0,0,1,434,366.4Zm0-14.12a8.22,8.22,0,0,0,2.54,2.68,6,6,0,0,0,3.18.91,4.83,4.83,0,0,0,2.3-.56,5.41,5.41,0,0,0,1.82-1.63,8.33,8.33,0,0,0,1.22-2.62,12,12,0,0,0,.43-3.35,8,8,0,0,0-1.5-5.12,4.6,4.6,0,0,0-1.68-1.31,5.44,5.44,0,0,0-2.11-.49,16.67,16.67,0,0,0-1.82.35,8.26,8.26,0,0,0-1.73.67,6.76,6.76,0,0,0-1.51,1.06,5.46,5.46,0,0,0-1.14,1.53Z"/><path class="cls-7" d="M452.29,363.26a4.32,4.32,0,0,0,.47,2.33,1.76,1.76,0,0,0,1.6.72,3.27,3.27,0,0,0,1.13-.25,10.6,10.6,0,0,0,1.61-.79v2.79a8.24,8.24,0,0,1-1.6.63,5.75,5.75,0,0,1-1.34.19c-3.06,0-4.59-1.81-4.59-5.41V340.38h2.72Z"/><path class="cls-7" d="M460.28,359.45a12.39,12.39,0,0,0,.48,2.83,6,6,0,0,0,1.11,2.17,5.33,5.33,0,0,0,4.38,1.93,8.89,8.89,0,0,0,5.61-2.21l1.34,2.19a15.42,15.42,0,0,1-3.63,2,10.77,10.77,0,0,1-3.68.65,7.63,7.63,0,0,1-6.1-2.74,9,9,0,0,1-1.73-3.2,14.25,14.25,0,0,1-.58-4.3,11.74,11.74,0,0,1,.61-3.86,10.07,10.07,0,0,1,1.77-3.21,9,9,0,0,1,2.85-2.16,7.91,7.91,0,0,1,3.5-.78,6.68,6.68,0,0,1,5.65,2.62,10.9,10.9,0,0,1,1.93,6.84v1.27ZM471,356.88a7,7,0,0,0-1.44-4.12,4.21,4.21,0,0,0-3.37-1.46,5.33,5.33,0,0,0-3.9,1.57,6.17,6.17,0,0,0-1.1,1.73,11.52,11.52,0,0,0-.71,2.28Z"/><path class="cls-7" d="M486.43,368.52v-27.1h2.89V365.8h10.43v2.72Z"/><path class="cls-7" d="M501.45,345.65a1.78,1.78,0,0,1-.72-.14,1.73,1.73,0,0,1-.6-.39,1.79,1.79,0,0,1-.42-.62,2,2,0,0,1-.15-.77,1.8,1.8,0,0,1,.16-.77,1.83,1.83,0,0,1,.43-.59,1.71,1.71,0,0,1,.6-.38,1.89,1.89,0,0,1,.7-.13,2,2,0,0,1,.73.13,1.9,1.9,0,0,1,1,1,2,2,0,0,1,.16.77,1.9,1.9,0,0,1-1.93,1.92Zm-1.34,22.87V349.17h2.74v19.35Z"/><path class="cls-7" d="M514.41,343.5a3.64,3.64,0,0,0-2.21-.81q-2.84,0-2.83,4v2.48h4.83v2.57h-4.83v16.78h-2.72V351.74h-3.29v-2.57h3.29v-2.63a6.51,6.51,0,0,1,1.6-4.76,5.38,5.38,0,0,1,4-1.68,7.81,7.81,0,0,1,3.3,1Z"/><path class="cls-7" d="M518.87,359.45a12.39,12.39,0,0,0,.48,2.83,6,6,0,0,0,1.11,2.17,5.36,5.36,0,0,0,4.38,1.93,8.89,8.89,0,0,0,5.61-2.21l1.34,2.19a15.57,15.57,0,0,1-3.62,2,10.87,10.87,0,0,1-3.69.65,7.64,7.64,0,0,1-6.1-2.74,9,9,0,0,1-1.73-3.2,14.57,14.57,0,0,1-.58-4.3,12,12,0,0,1,.61-3.86,10.07,10.07,0,0,1,1.77-3.21,9,9,0,0,1,2.85-2.16,7.94,7.94,0,0,1,3.5-.78,6.68,6.68,0,0,1,5.65,2.62,10.9,10.9,0,0,1,1.93,6.84v1.27Zm10.68-2.57a7,7,0,0,0-1.45-4.12,4.19,4.19,0,0,0-3.37-1.46,5.29,5.29,0,0,0-3.89,1.57,6.19,6.19,0,0,0-1.11,1.73,11.52,11.52,0,0,0-.71,2.28Z"/></g></g></svg>